# xmcd
#
# Track frame offsets: 
#        150
#        23569
#        42659
#        65632
#        86022
#        106028
#        123336
#        143502
#        173789
#        188682
#
# Disc length: 2773 seconds
#
# Revision: 0
# Processed by: cddbd v1.5.2PL0 Copyright (c) Steve Scherf et al.
# Submitted via: ExactAudioCopy v0.95b4
#
DISCID=7d0ad30a
DTITLE=Handmade - No Limits
DYEAR=2001
DGENRE=Blues
TTITLE0=Island Of Love
TTITLE1=Long Time Ago
TTITLE2=High Way Of Life
TTITLE3=I Talk Too Much
TTITLE4=No Limits
TTITLE5=Mounttaineer
TTITLE6=Drive Or Fly
TTITLE7=Mister Bassman
TTITLE8=Routine Controle
TTITLE9=Celebration
EXTD=
EXTT0=
EXTT1=
EXTT2=
EXTT3=
EXTT4=
EXTT5=
EXTT6=
EXTT7=
EXTT8=
EXTT9=
PLAYORDER=
